<mxfile host="app.diagrams.net" agent="Mozilla/5.0 (Windows NT 10.0; Win64; x64; rv:130.0) Gecko/20100101 Firefox/130.0" version="24.7.7" pages="6">
  <diagram name="Question 30" id="YYqQa3ff7ur5zeh00A_i">
    <mxGraphModel dx="302" dy="642" grid="1" gridSize="10" guides="1" tooltips="1" connect="1" arrows="1" fold="1" page="1" pageScale="1" pageWidth="850" pageHeight="1100" math="0" shadow="0">
      <root>
        <mxCell id="0" />
        <mxCell id="1" parent="0" />
        <mxCell id="iGgJwvIEg-CEDIRnVNm3-11" style="edgeStyle=orthogonalEdgeStyle;rounded=0;orthogonalLoop=1;jettySize=auto;html=1;exitX=0.5;exitY=1;exitDx=0;exitDy=0;" edge="1" parent="1" source="iGgJwvIEg-CEDIRnVNm3-2" target="iGgJwvIEg-CEDIRnVNm3-4">
          <mxGeometry relative="1" as="geometry" />
        </mxCell>
        <mxCell id="iGgJwvIEg-CEDIRnVNm3-2" value="Start" style="ellipse;whiteSpace=wrap;html=1;" vertex="1" parent="1">
          <mxGeometry x="390" width="120" height="80" as="geometry" />
        </mxCell>
        <mxCell id="iGgJwvIEg-CEDIRnVNm3-12" style="edgeStyle=orthogonalEdgeStyle;rounded=0;orthogonalLoop=1;jettySize=auto;html=1;exitX=0.5;exitY=1;exitDx=0;exitDy=0;entryX=0.5;entryY=0;entryDx=0;entryDy=0;" edge="1" parent="1" source="iGgJwvIEg-CEDIRnVNm3-4" target="iGgJwvIEg-CEDIRnVNm3-5">
          <mxGeometry relative="1" as="geometry" />
        </mxCell>
        <mxCell id="iGgJwvIEg-CEDIRnVNm3-4" value="Enter maxCredit" style="shape=parallelogram;perimeter=parallelogramPerimeter;whiteSpace=wrap;html=1;fixedSize=1;" vertex="1" parent="1">
          <mxGeometry x="390" y="100" width="120" height="60" as="geometry" />
        </mxCell>
        <mxCell id="iGgJwvIEg-CEDIRnVNm3-13" style="edgeStyle=orthogonalEdgeStyle;rounded=0;orthogonalLoop=1;jettySize=auto;html=1;exitX=0.5;exitY=1;exitDx=0;exitDy=0;entryX=0.5;entryY=0;entryDx=0;entryDy=0;" edge="1" parent="1" source="iGgJwvIEg-CEDIRnVNm3-5" target="iGgJwvIEg-CEDIRnVNm3-6">
          <mxGeometry relative="1" as="geometry" />
        </mxCell>
        <mxCell id="iGgJwvIEg-CEDIRnVNm3-5" value="Input maxCredit" style="shape=parallelogram;perimeter=parallelogramPerimeter;whiteSpace=wrap;html=1;fixedSize=1;" vertex="1" parent="1">
          <mxGeometry x="390" y="190" width="120" height="60" as="geometry" />
        </mxCell>
        <mxCell id="iGgJwvIEg-CEDIRnVNm3-14" style="edgeStyle=orthogonalEdgeStyle;rounded=0;orthogonalLoop=1;jettySize=auto;html=1;exitX=0.5;exitY=1;exitDx=0;exitDy=0;entryX=0.5;entryY=0;entryDx=0;entryDy=0;" edge="1" parent="1" source="iGgJwvIEg-CEDIRnVNm3-6" target="iGgJwvIEg-CEDIRnVNm3-7">
          <mxGeometry relative="1" as="geometry" />
        </mxCell>
        <mxCell id="iGgJwvIEg-CEDIRnVNm3-6" value="Enter usedCredit" style="shape=parallelogram;perimeter=parallelogramPerimeter;whiteSpace=wrap;html=1;fixedSize=1;" vertex="1" parent="1">
          <mxGeometry x="390" y="270" width="120" height="60" as="geometry" />
        </mxCell>
        <mxCell id="iGgJwvIEg-CEDIRnVNm3-15" style="edgeStyle=orthogonalEdgeStyle;rounded=0;orthogonalLoop=1;jettySize=auto;html=1;exitX=0.5;exitY=1;exitDx=0;exitDy=0;entryX=0.5;entryY=0;entryDx=0;entryDy=0;" edge="1" parent="1" source="iGgJwvIEg-CEDIRnVNm3-7" target="iGgJwvIEg-CEDIRnVNm3-8">
          <mxGeometry relative="1" as="geometry" />
        </mxCell>
        <mxCell id="iGgJwvIEg-CEDIRnVNm3-7" value="Input usedCredit" style="shape=parallelogram;perimeter=parallelogramPerimeter;whiteSpace=wrap;html=1;fixedSize=1;" vertex="1" parent="1">
          <mxGeometry x="390" y="360" width="120" height="60" as="geometry" />
        </mxCell>
        <mxCell id="iGgJwvIEg-CEDIRnVNm3-16" style="edgeStyle=orthogonalEdgeStyle;rounded=0;orthogonalLoop=1;jettySize=auto;html=1;exitX=0.5;exitY=1;exitDx=0;exitDy=0;entryX=0.5;entryY=0;entryDx=0;entryDy=0;" edge="1" parent="1" source="iGgJwvIEg-CEDIRnVNm3-8" target="iGgJwvIEg-CEDIRnVNm3-10">
          <mxGeometry relative="1" as="geometry" />
        </mxCell>
        <mxCell id="iGgJwvIEg-CEDIRnVNm3-8" value="totalCredit = maxCredit - usedCredit" style="rounded=0;whiteSpace=wrap;html=1;" vertex="1" parent="1">
          <mxGeometry x="390" y="450" width="120" height="60" as="geometry" />
        </mxCell>
        <mxCell id="kBNc6UInCZw0jTTeYBtH-2" style="edgeStyle=orthogonalEdgeStyle;rounded=0;orthogonalLoop=1;jettySize=auto;html=1;exitX=0.5;exitY=1;exitDx=0;exitDy=0;entryX=0.5;entryY=0;entryDx=0;entryDy=0;" edge="1" parent="1" source="iGgJwvIEg-CEDIRnVNm3-10" target="kBNc6UInCZw0jTTeYBtH-1">
          <mxGeometry relative="1" as="geometry" />
        </mxCell>
        <mxCell id="iGgJwvIEg-CEDIRnVNm3-10" value="Print totalCredit" style="rounded=0;whiteSpace=wrap;html=1;" vertex="1" parent="1">
          <mxGeometry x="390" y="540" width="120" height="60" as="geometry" />
        </mxCell>
        <mxCell id="kBNc6UInCZw0jTTeYBtH-1" value="End" style="ellipse;whiteSpace=wrap;html=1;" vertex="1" parent="1">
          <mxGeometry x="390" y="620" width="120" height="80" as="geometry" />
        </mxCell>
      </root>
    </mxGraphModel>
  </diagram>
  <diagram id="1DugojhrhSy_qQhuCNRM" name="Question 31">
    <mxGraphModel dx="377" dy="802" grid="1" gridSize="10" guides="1" tooltips="1" connect="1" arrows="1" fold="1" page="1" pageScale="1" pageWidth="850" pageHeight="1100" math="0" shadow="0">
      <root>
        <mxCell id="0" />
        <mxCell id="1" parent="0" />
        <mxCell id="iLQQi02cHLll-tPFuBoe-9" style="edgeStyle=orthogonalEdgeStyle;rounded=0;orthogonalLoop=1;jettySize=auto;html=1;exitX=0.5;exitY=1;exitDx=0;exitDy=0;entryX=0.5;entryY=0;entryDx=0;entryDy=0;" edge="1" parent="1" source="iLQQi02cHLll-tPFuBoe-1" target="iLQQi02cHLll-tPFuBoe-2">
          <mxGeometry relative="1" as="geometry" />
        </mxCell>
        <mxCell id="iLQQi02cHLll-tPFuBoe-1" value="Start" style="ellipse;whiteSpace=wrap;html=1;" vertex="1" parent="1">
          <mxGeometry x="170" width="120" height="80" as="geometry" />
        </mxCell>
        <mxCell id="iLQQi02cHLll-tPFuBoe-10" style="edgeStyle=orthogonalEdgeStyle;rounded=0;orthogonalLoop=1;jettySize=auto;html=1;exitX=0.5;exitY=1;exitDx=0;exitDy=0;entryX=0.5;entryY=0;entryDx=0;entryDy=0;" edge="1" parent="1" source="iLQQi02cHLll-tPFuBoe-2" target="iLQQi02cHLll-tPFuBoe-3">
          <mxGeometry relative="1" as="geometry" />
        </mxCell>
        <mxCell id="iLQQi02cHLll-tPFuBoe-2" value="Enter itemPrice" style="shape=parallelogram;perimeter=parallelogramPerimeter;whiteSpace=wrap;html=1;fixedSize=1;" vertex="1" parent="1">
          <mxGeometry x="170" y="110" width="120" height="60" as="geometry" />
        </mxCell>
        <mxCell id="iLQQi02cHLll-tPFuBoe-11" style="edgeStyle=orthogonalEdgeStyle;rounded=0;orthogonalLoop=1;jettySize=auto;html=1;exitX=0.5;exitY=1;exitDx=0;exitDy=0;entryX=0.5;entryY=0;entryDx=0;entryDy=0;" edge="1" parent="1" source="iLQQi02cHLll-tPFuBoe-3" target="iLQQi02cHLll-tPFuBoe-4">
          <mxGeometry relative="1" as="geometry" />
        </mxCell>
        <mxCell id="iLQQi02cHLll-tPFuBoe-3" value="Input itemPrice" style="shape=parallelogram;perimeter=parallelogramPerimeter;whiteSpace=wrap;html=1;fixedSize=1;" vertex="1" parent="1">
          <mxGeometry x="170" y="200" width="120" height="60" as="geometry" />
        </mxCell>
        <mxCell id="iLQQi02cHLll-tPFuBoe-12" style="edgeStyle=orthogonalEdgeStyle;rounded=0;orthogonalLoop=1;jettySize=auto;html=1;exitX=0.5;exitY=1;exitDx=0;exitDy=0;entryX=0.5;entryY=0;entryDx=0;entryDy=0;" edge="1" parent="1" source="iLQQi02cHLll-tPFuBoe-4" target="iLQQi02cHLll-tPFuBoe-5">
          <mxGeometry relative="1" as="geometry" />
        </mxCell>
        <mxCell id="iLQQi02cHLll-tPFuBoe-4" value="Enter saleTax" style="shape=parallelogram;perimeter=parallelogramPerimeter;whiteSpace=wrap;html=1;fixedSize=1;" vertex="1" parent="1">
          <mxGeometry x="160" y="290" width="120" height="60" as="geometry" />
        </mxCell>
        <mxCell id="iLQQi02cHLll-tPFuBoe-13" style="edgeStyle=orthogonalEdgeStyle;rounded=0;orthogonalLoop=1;jettySize=auto;html=1;exitX=0.5;exitY=1;exitDx=0;exitDy=0;entryX=0.5;entryY=0;entryDx=0;entryDy=0;" edge="1" parent="1" source="iLQQi02cHLll-tPFuBoe-5" target="iLQQi02cHLll-tPFuBoe-6">
          <mxGeometry relative="1" as="geometry" />
        </mxCell>
        <mxCell id="iLQQi02cHLll-tPFuBoe-5" value="Input saleTax" style="shape=parallelogram;perimeter=parallelogramPerimeter;whiteSpace=wrap;html=1;fixedSize=1;" vertex="1" parent="1">
          <mxGeometry x="160" y="380" width="120" height="60" as="geometry" />
        </mxCell>
        <mxCell id="iLQQi02cHLll-tPFuBoe-14" style="edgeStyle=orthogonalEdgeStyle;rounded=0;orthogonalLoop=1;jettySize=auto;html=1;exitX=0.5;exitY=1;exitDx=0;exitDy=0;entryX=0.5;entryY=0;entryDx=0;entryDy=0;" edge="1" parent="1" source="iLQQi02cHLll-tPFuBoe-6" target="iLQQi02cHLll-tPFuBoe-8">
          <mxGeometry relative="1" as="geometry" />
        </mxCell>
        <mxCell id="iLQQi02cHLll-tPFuBoe-6" value="totalPrice = itemPrice * saleTax" style="rounded=0;whiteSpace=wrap;html=1;" vertex="1" parent="1">
          <mxGeometry x="160" y="460" width="120" height="60" as="geometry" />
        </mxCell>
        <mxCell id="-mV5z6CVNF4gHTEo4lNj-2" style="edgeStyle=orthogonalEdgeStyle;rounded=0;orthogonalLoop=1;jettySize=auto;html=1;exitX=0.5;exitY=1;exitDx=0;exitDy=0;entryX=0.5;entryY=0;entryDx=0;entryDy=0;" edge="1" parent="1" source="iLQQi02cHLll-tPFuBoe-8" target="-mV5z6CVNF4gHTEo4lNj-1">
          <mxGeometry relative="1" as="geometry" />
        </mxCell>
        <mxCell id="iLQQi02cHLll-tPFuBoe-8" value="Print totalPrice" style="rounded=0;whiteSpace=wrap;html=1;" vertex="1" parent="1">
          <mxGeometry x="160" y="540" width="120" height="60" as="geometry" />
        </mxCell>
        <mxCell id="-mV5z6CVNF4gHTEo4lNj-1" value="End" style="ellipse;whiteSpace=wrap;html=1;" vertex="1" parent="1">
          <mxGeometry x="160" y="610" width="120" height="80" as="geometry" />
        </mxCell>
      </root>
    </mxGraphModel>
  </diagram>
  <diagram id="dZGQjrY6oQPys1aF-9wG" name="Question 32">
    <mxGraphModel dx="377" dy="802" grid="1" gridSize="10" guides="1" tooltips="1" connect="1" arrows="1" fold="1" page="1" pageScale="1" pageWidth="850" pageHeight="1100" math="0" shadow="0">
      <root>
        <mxCell id="0" />
        <mxCell id="1" parent="0" />
        <mxCell id="JIKMt-5VxSbs5FmV1zT_-12" style="edgeStyle=orthogonalEdgeStyle;rounded=0;orthogonalLoop=1;jettySize=auto;html=1;exitX=0.5;exitY=1;exitDx=0;exitDy=0;entryX=0.5;entryY=0;entryDx=0;entryDy=0;" edge="1" parent="1" source="JIKMt-5VxSbs5FmV1zT_-1" target="JIKMt-5VxSbs5FmV1zT_-2">
          <mxGeometry relative="1" as="geometry" />
        </mxCell>
        <mxCell id="JIKMt-5VxSbs5FmV1zT_-1" value="Start" style="ellipse;whiteSpace=wrap;html=1;" vertex="1" parent="1">
          <mxGeometry x="170" y="40" width="120" height="80" as="geometry" />
        </mxCell>
        <mxCell id="JIKMt-5VxSbs5FmV1zT_-13" style="edgeStyle=orthogonalEdgeStyle;rounded=0;orthogonalLoop=1;jettySize=auto;html=1;exitX=0.5;exitY=1;exitDx=0;exitDy=0;entryX=0.5;entryY=0;entryDx=0;entryDy=0;" edge="1" parent="1" source="JIKMt-5VxSbs5FmV1zT_-2" target="JIKMt-5VxSbs5FmV1zT_-3">
          <mxGeometry relative="1" as="geometry" />
        </mxCell>
        <mxCell id="JIKMt-5VxSbs5FmV1zT_-2" value="Enter balance" style="shape=parallelogram;perimeter=parallelogramPerimeter;whiteSpace=wrap;html=1;fixedSize=1;" vertex="1" parent="1">
          <mxGeometry x="170" y="150" width="120" height="60" as="geometry" />
        </mxCell>
        <mxCell id="JIKMt-5VxSbs5FmV1zT_-14" style="edgeStyle=orthogonalEdgeStyle;rounded=0;orthogonalLoop=1;jettySize=auto;html=1;exitX=0.5;exitY=1;exitDx=0;exitDy=0;" edge="1" parent="1" source="JIKMt-5VxSbs5FmV1zT_-3" target="JIKMt-5VxSbs5FmV1zT_-4">
          <mxGeometry relative="1" as="geometry" />
        </mxCell>
        <mxCell id="JIKMt-5VxSbs5FmV1zT_-3" value="Input balance" style="shape=parallelogram;perimeter=parallelogramPerimeter;whiteSpace=wrap;html=1;fixedSize=1;" vertex="1" parent="1">
          <mxGeometry x="170" y="230" width="120" height="60" as="geometry" />
        </mxCell>
        <mxCell id="JIKMt-5VxSbs5FmV1zT_-15" style="edgeStyle=orthogonalEdgeStyle;rounded=0;orthogonalLoop=1;jettySize=auto;html=1;exitX=0.5;exitY=1;exitDx=0;exitDy=0;entryX=0.5;entryY=0;entryDx=0;entryDy=0;" edge="1" parent="1" source="JIKMt-5VxSbs5FmV1zT_-4" target="JIKMt-5VxSbs5FmV1zT_-5">
          <mxGeometry relative="1" as="geometry" />
        </mxCell>
        <mxCell id="JIKMt-5VxSbs5FmV1zT_-4" value="Enter totalDeposit" style="shape=parallelogram;perimeter=parallelogramPerimeter;whiteSpace=wrap;html=1;fixedSize=1;" vertex="1" parent="1">
          <mxGeometry x="170" y="320" width="120" height="60" as="geometry" />
        </mxCell>
        <mxCell id="JIKMt-5VxSbs5FmV1zT_-16" style="edgeStyle=orthogonalEdgeStyle;rounded=0;orthogonalLoop=1;jettySize=auto;html=1;exitX=0.5;exitY=1;exitDx=0;exitDy=0;entryX=0.5;entryY=0;entryDx=0;entryDy=0;" edge="1" parent="1" source="JIKMt-5VxSbs5FmV1zT_-5" target="JIKMt-5VxSbs5FmV1zT_-6">
          <mxGeometry relative="1" as="geometry" />
        </mxCell>
        <mxCell id="JIKMt-5VxSbs5FmV1zT_-5" value="Input totalDeposit" style="shape=parallelogram;perimeter=parallelogramPerimeter;whiteSpace=wrap;html=1;fixedSize=1;" vertex="1" parent="1">
          <mxGeometry x="170" y="410" width="120" height="60" as="geometry" />
        </mxCell>
        <mxCell id="JIKMt-5VxSbs5FmV1zT_-17" style="edgeStyle=orthogonalEdgeStyle;rounded=0;orthogonalLoop=1;jettySize=auto;html=1;exitX=0.5;exitY=1;exitDx=0;exitDy=0;entryX=0.5;entryY=0;entryDx=0;entryDy=0;" edge="1" parent="1" source="JIKMt-5VxSbs5FmV1zT_-6" target="JIKMt-5VxSbs5FmV1zT_-7">
          <mxGeometry relative="1" as="geometry" />
        </mxCell>
        <mxCell id="JIKMt-5VxSbs5FmV1zT_-6" value="Enter totalWith" style="shape=parallelogram;perimeter=parallelogramPerimeter;whiteSpace=wrap;html=1;fixedSize=1;" vertex="1" parent="1">
          <mxGeometry x="145" y="490" width="170" height="60" as="geometry" />
        </mxCell>
        <mxCell id="JIKMt-5VxSbs5FmV1zT_-18" style="edgeStyle=orthogonalEdgeStyle;rounded=0;orthogonalLoop=1;jettySize=auto;html=1;exitX=0.5;exitY=1;exitDx=0;exitDy=0;entryX=0.5;entryY=0;entryDx=0;entryDy=0;" edge="1" parent="1" source="JIKMt-5VxSbs5FmV1zT_-7" target="JIKMt-5VxSbs5FmV1zT_-8">
          <mxGeometry relative="1" as="geometry" />
        </mxCell>
        <mxCell id="JIKMt-5VxSbs5FmV1zT_-7" value="Input totalWith" style="shape=parallelogram;perimeter=parallelogramPerimeter;whiteSpace=wrap;html=1;fixedSize=1;" vertex="1" parent="1">
          <mxGeometry x="170" y="570" width="120" height="60" as="geometry" />
        </mxCell>
        <mxCell id="JIKMt-5VxSbs5FmV1zT_-19" style="edgeStyle=orthogonalEdgeStyle;rounded=0;orthogonalLoop=1;jettySize=auto;html=1;exitX=0.5;exitY=1;exitDx=0;exitDy=0;entryX=0.5;entryY=0;entryDx=0;entryDy=0;" edge="1" parent="1" source="JIKMt-5VxSbs5FmV1zT_-8" target="JIKMt-5VxSbs5FmV1zT_-9">
          <mxGeometry relative="1" as="geometry" />
        </mxCell>
        <mxCell id="JIKMt-5VxSbs5FmV1zT_-8" value="Enter intrestRate" style="shape=parallelogram;perimeter=parallelogramPerimeter;whiteSpace=wrap;html=1;fixedSize=1;" vertex="1" parent="1">
          <mxGeometry x="170" y="650" width="120" height="60" as="geometry" />
        </mxCell>
        <mxCell id="JIKMt-5VxSbs5FmV1zT_-20" style="edgeStyle=orthogonalEdgeStyle;rounded=0;orthogonalLoop=1;jettySize=auto;html=1;exitX=0.5;exitY=1;exitDx=0;exitDy=0;entryX=0.5;entryY=0;entryDx=0;entryDy=0;" edge="1" parent="1" source="JIKMt-5VxSbs5FmV1zT_-9" target="JIKMt-5VxSbs5FmV1zT_-10">
          <mxGeometry relative="1" as="geometry" />
        </mxCell>
        <mxCell id="JIKMt-5VxSbs5FmV1zT_-9" value="Input intrestRate" style="shape=parallelogram;perimeter=parallelogramPerimeter;whiteSpace=wrap;html=1;fixedSize=1;" vertex="1" parent="1">
          <mxGeometry x="170" y="730" width="120" height="60" as="geometry" />
        </mxCell>
        <mxCell id="JIKMt-5VxSbs5FmV1zT_-21" style="edgeStyle=orthogonalEdgeStyle;rounded=0;orthogonalLoop=1;jettySize=auto;html=1;exitX=0.5;exitY=1;exitDx=0;exitDy=0;entryX=0.5;entryY=0;entryDx=0;entryDy=0;" edge="1" parent="1" source="JIKMt-5VxSbs5FmV1zT_-10" target="JIKMt-5VxSbs5FmV1zT_-11">
          <mxGeometry relative="1" as="geometry" />
        </mxCell>
        <mxCell id="JIKMt-5VxSbs5FmV1zT_-10" value="currentBal = (balance + totalDeposit) - totalWith * intrestRate" style="rounded=0;whiteSpace=wrap;html=1;" vertex="1" parent="1">
          <mxGeometry x="170" y="810" width="120" height="60" as="geometry" />
        </mxCell>
        <mxCell id="0fgrqALo267XCWzAHH4R-2" style="edgeStyle=orthogonalEdgeStyle;rounded=0;orthogonalLoop=1;jettySize=auto;html=1;exitX=0.5;exitY=1;exitDx=0;exitDy=0;entryX=0.5;entryY=0;entryDx=0;entryDy=0;" edge="1" parent="1" source="JIKMt-5VxSbs5FmV1zT_-11" target="0fgrqALo267XCWzAHH4R-1">
          <mxGeometry relative="1" as="geometry" />
        </mxCell>
        <mxCell id="JIKMt-5VxSbs5FmV1zT_-11" value="Print currentBal" style="rounded=0;whiteSpace=wrap;html=1;" vertex="1" parent="1">
          <mxGeometry x="170" y="890" width="120" height="60" as="geometry" />
        </mxCell>
        <mxCell id="0fgrqALo267XCWzAHH4R-1" value="End" style="ellipse;whiteSpace=wrap;html=1;" vertex="1" parent="1">
          <mxGeometry x="170" y="970" width="120" height="80" as="geometry" />
        </mxCell>
      </root>
    </mxGraphModel>
  </diagram>
  <diagram id="0lMBXruPvP9sAYSHBbkz" name="Question 33">
    <mxGraphModel dx="444" dy="944" grid="1" gridSize="10" guides="1" tooltips="1" connect="1" arrows="1" fold="1" page="1" pageScale="1" pageWidth="850" pageHeight="1100" math="0" shadow="0">
      <root>
        <mxCell id="0" />
        <mxCell id="1" parent="0" />
        <mxCell id="Nb6tkAS1Y2QUyn51wGtM-8" style="edgeStyle=orthogonalEdgeStyle;rounded=0;orthogonalLoop=1;jettySize=auto;html=1;exitX=0.5;exitY=1;exitDx=0;exitDy=0;entryX=0.5;entryY=0;entryDx=0;entryDy=0;" edge="1" parent="1" source="Nb6tkAS1Y2QUyn51wGtM-1" target="Nb6tkAS1Y2QUyn51wGtM-2">
          <mxGeometry relative="1" as="geometry" />
        </mxCell>
        <mxCell id="Nb6tkAS1Y2QUyn51wGtM-1" value="Start" style="ellipse;whiteSpace=wrap;html=1;" vertex="1" parent="1">
          <mxGeometry x="490" width="120" height="80" as="geometry" />
        </mxCell>
        <mxCell id="Nb6tkAS1Y2QUyn51wGtM-9" style="edgeStyle=orthogonalEdgeStyle;rounded=0;orthogonalLoop=1;jettySize=auto;html=1;exitX=0.5;exitY=1;exitDx=0;exitDy=0;entryX=0.5;entryY=0;entryDx=0;entryDy=0;" edge="1" parent="1" source="Nb6tkAS1Y2QUyn51wGtM-2" target="Nb6tkAS1Y2QUyn51wGtM-3">
          <mxGeometry relative="1" as="geometry" />
        </mxCell>
        <mxCell id="Nb6tkAS1Y2QUyn51wGtM-2" value="x = 0" style="rounded=0;whiteSpace=wrap;html=1;" vertex="1" parent="1">
          <mxGeometry x="490" y="110" width="120" height="60" as="geometry" />
        </mxCell>
        <mxCell id="Nb6tkAS1Y2QUyn51wGtM-10" style="edgeStyle=orthogonalEdgeStyle;rounded=0;orthogonalLoop=1;jettySize=auto;html=1;exitX=0.5;exitY=1;exitDx=0;exitDy=0;entryX=0.5;entryY=0;entryDx=0;entryDy=0;" edge="1" parent="1" source="Nb6tkAS1Y2QUyn51wGtM-3" target="Nb6tkAS1Y2QUyn51wGtM-4">
          <mxGeometry relative="1" as="geometry" />
        </mxCell>
        <mxCell id="Nb6tkAS1Y2QUyn51wGtM-3" value="y = 5" style="rounded=0;whiteSpace=wrap;html=1;" vertex="1" parent="1">
          <mxGeometry x="490" y="200" width="120" height="60" as="geometry" />
        </mxCell>
        <mxCell id="Nb6tkAS1Y2QUyn51wGtM-11" style="edgeStyle=orthogonalEdgeStyle;rounded=0;orthogonalLoop=1;jettySize=auto;html=1;exitX=0.5;exitY=1;exitDx=0;exitDy=0;entryX=0.5;entryY=0;entryDx=0;entryDy=0;" edge="1" parent="1" source="Nb6tkAS1Y2QUyn51wGtM-4" target="Nb6tkAS1Y2QUyn51wGtM-5">
          <mxGeometry relative="1" as="geometry" />
        </mxCell>
        <mxCell id="Nb6tkAS1Y2QUyn51wGtM-4" value="x = x +1 " style="rounded=0;whiteSpace=wrap;html=1;" vertex="1" parent="1">
          <mxGeometry x="490" y="290" width="120" height="60" as="geometry" />
        </mxCell>
        <mxCell id="Nb6tkAS1Y2QUyn51wGtM-12" style="edgeStyle=orthogonalEdgeStyle;rounded=0;orthogonalLoop=1;jettySize=auto;html=1;exitX=0.5;exitY=1;exitDx=0;exitDy=0;entryX=0.5;entryY=0;entryDx=0;entryDy=0;" edge="1" parent="1" source="Nb6tkAS1Y2QUyn51wGtM-5" target="Nb6tkAS1Y2QUyn51wGtM-6">
          <mxGeometry relative="1" as="geometry" />
        </mxCell>
        <mxCell id="Nb6tkAS1Y2QUyn51wGtM-5" value="y = y +1" style="rounded=0;whiteSpace=wrap;html=1;" vertex="1" parent="1">
          <mxGeometry x="490" y="390" width="120" height="60" as="geometry" />
        </mxCell>
        <mxCell id="Nb6tkAS1Y2QUyn51wGtM-13" style="edgeStyle=orthogonalEdgeStyle;rounded=0;orthogonalLoop=1;jettySize=auto;html=1;exitX=0.5;exitY=1;exitDx=0;exitDy=0;entryX=0.5;entryY=0;entryDx=0;entryDy=0;" edge="1" parent="1" source="Nb6tkAS1Y2QUyn51wGtM-6" target="Nb6tkAS1Y2QUyn51wGtM-7">
          <mxGeometry relative="1" as="geometry" />
        </mxCell>
        <mxCell id="Nb6tkAS1Y2QUyn51wGtM-6" value="y =y + x" style="rounded=0;whiteSpace=wrap;html=1;" vertex="1" parent="1">
          <mxGeometry x="490" y="480" width="120" height="60" as="geometry" />
        </mxCell>
        <mxCell id="eC9FtmfJ81Zg2T-AH_cB-2" style="edgeStyle=orthogonalEdgeStyle;rounded=0;orthogonalLoop=1;jettySize=auto;html=1;exitX=0.5;exitY=1;exitDx=0;exitDy=0;entryX=0.5;entryY=0;entryDx=0;entryDy=0;" edge="1" parent="1" source="Nb6tkAS1Y2QUyn51wGtM-7" target="eC9FtmfJ81Zg2T-AH_cB-1">
          <mxGeometry relative="1" as="geometry" />
        </mxCell>
        <mxCell id="Nb6tkAS1Y2QUyn51wGtM-7" value="Print y" style="rounded=0;whiteSpace=wrap;html=1;" vertex="1" parent="1">
          <mxGeometry x="490" y="560" width="120" height="60" as="geometry" />
        </mxCell>
        <mxCell id="eC9FtmfJ81Zg2T-AH_cB-1" value="End" style="ellipse;whiteSpace=wrap;html=1;" vertex="1" parent="1">
          <mxGeometry x="490" y="640" width="120" height="80" as="geometry" />
        </mxCell>
      </root>
    </mxGraphModel>
  </diagram>
  <diagram id="_k_8RI3mu8JzHuT4ZIM0" name="Question 34">
    <mxGraphModel dx="377" dy="802" grid="1" gridSize="10" guides="1" tooltips="1" connect="1" arrows="1" fold="1" page="1" pageScale="1" pageWidth="850" pageHeight="1100" math="0" shadow="0">
      <root>
        <mxCell id="0" />
        <mxCell id="1" parent="0" />
        <mxCell id="A-ObRub3Z6mCzpWQvKQM-2" style="edgeStyle=orthogonalEdgeStyle;rounded=0;orthogonalLoop=1;jettySize=auto;html=1;exitX=0.5;exitY=1;exitDx=0;exitDy=0;entryX=0.5;entryY=0;entryDx=0;entryDy=0;" edge="1" parent="1" source="gdaSS0FysXJyyBnW7SMF-1" target="gdaSS0FysXJyyBnW7SMF-2">
          <mxGeometry relative="1" as="geometry" />
        </mxCell>
        <mxCell id="gdaSS0FysXJyyBnW7SMF-1" value="Start" style="ellipse;whiteSpace=wrap;html=1;" vertex="1" parent="1">
          <mxGeometry x="190" y="10" width="120" height="80" as="geometry" />
        </mxCell>
        <mxCell id="A-ObRub3Z6mCzpWQvKQM-3" style="edgeStyle=orthogonalEdgeStyle;rounded=0;orthogonalLoop=1;jettySize=auto;html=1;exitX=0.5;exitY=1;exitDx=0;exitDy=0;entryX=0.5;entryY=0;entryDx=0;entryDy=0;" edge="1" parent="1" source="gdaSS0FysXJyyBnW7SMF-2" target="gdaSS0FysXJyyBnW7SMF-3">
          <mxGeometry relative="1" as="geometry" />
        </mxCell>
        <mxCell id="gdaSS0FysXJyyBnW7SMF-2" value="j = 10" style="rounded=0;whiteSpace=wrap;html=1;" vertex="1" parent="1">
          <mxGeometry x="190" y="110" width="120" height="60" as="geometry" />
        </mxCell>
        <mxCell id="A-ObRub3Z6mCzpWQvKQM-4" style="edgeStyle=orthogonalEdgeStyle;rounded=0;orthogonalLoop=1;jettySize=auto;html=1;exitX=0.5;exitY=1;exitDx=0;exitDy=0;entryX=0.5;entryY=0;entryDx=0;entryDy=0;" edge="1" parent="1" source="gdaSS0FysXJyyBnW7SMF-3" target="gdaSS0FysXJyyBnW7SMF-4">
          <mxGeometry relative="1" as="geometry" />
        </mxCell>
        <mxCell id="gdaSS0FysXJyyBnW7SMF-3" value="k = 2" style="rounded=0;whiteSpace=wrap;html=1;" vertex="1" parent="1">
          <mxGeometry x="190" y="200" width="120" height="60" as="geometry" />
        </mxCell>
        <mxCell id="A-ObRub3Z6mCzpWQvKQM-5" style="edgeStyle=orthogonalEdgeStyle;rounded=0;orthogonalLoop=1;jettySize=auto;html=1;exitX=0.5;exitY=1;exitDx=0;exitDy=0;entryX=0.5;entryY=0;entryDx=0;entryDy=0;" edge="1" parent="1" source="gdaSS0FysXJyyBnW7SMF-4" target="gdaSS0FysXJyyBnW7SMF-5">
          <mxGeometry relative="1" as="geometry" />
        </mxCell>
        <mxCell id="gdaSS0FysXJyyBnW7SMF-4" value="l = 4" style="rounded=0;whiteSpace=wrap;html=1;" vertex="1" parent="1">
          <mxGeometry x="190" y="290" width="120" height="60" as="geometry" />
        </mxCell>
        <mxCell id="A-ObRub3Z6mCzpWQvKQM-6" style="edgeStyle=orthogonalEdgeStyle;rounded=0;orthogonalLoop=1;jettySize=auto;html=1;exitX=0.5;exitY=1;exitDx=0;exitDy=0;entryX=0.5;entryY=0;entryDx=0;entryDy=0;" edge="1" parent="1" source="gdaSS0FysXJyyBnW7SMF-5" target="gdaSS0FysXJyyBnW7SMF-6">
          <mxGeometry relative="1" as="geometry" />
        </mxCell>
        <mxCell id="gdaSS0FysXJyyBnW7SMF-5" value="j = j * k" style="rounded=0;whiteSpace=wrap;html=1;" vertex="1" parent="1">
          <mxGeometry x="190" y="380" width="120" height="60" as="geometry" />
        </mxCell>
        <mxCell id="A-ObRub3Z6mCzpWQvKQM-7" style="edgeStyle=orthogonalEdgeStyle;rounded=0;orthogonalLoop=1;jettySize=auto;html=1;exitX=0.5;exitY=1;exitDx=0;exitDy=0;entryX=0.5;entryY=0;entryDx=0;entryDy=0;" edge="1" parent="1" source="gdaSS0FysXJyyBnW7SMF-6" target="gdaSS0FysXJyyBnW7SMF-7">
          <mxGeometry relative="1" as="geometry" />
        </mxCell>
        <mxCell id="gdaSS0FysXJyyBnW7SMF-6" value="l = l * k" style="rounded=0;whiteSpace=wrap;html=1;" vertex="1" parent="1">
          <mxGeometry x="190" y="460" width="120" height="60" as="geometry" />
        </mxCell>
        <mxCell id="A-ObRub3Z6mCzpWQvKQM-8" style="edgeStyle=orthogonalEdgeStyle;rounded=0;orthogonalLoop=1;jettySize=auto;html=1;exitX=0.5;exitY=1;exitDx=0;exitDy=0;entryX=0.5;entryY=0;entryDx=0;entryDy=0;" edge="1" parent="1" source="gdaSS0FysXJyyBnW7SMF-7" target="A-ObRub3Z6mCzpWQvKQM-1">
          <mxGeometry relative="1" as="geometry" />
        </mxCell>
        <mxCell id="gdaSS0FysXJyyBnW7SMF-7" value="k = j + l" style="rounded=0;whiteSpace=wrap;html=1;" vertex="1" parent="1">
          <mxGeometry x="190" y="540" width="120" height="60" as="geometry" />
        </mxCell>
        <mxCell id="A-ObRub3Z6mCzpWQvKQM-10" style="edgeStyle=orthogonalEdgeStyle;rounded=0;orthogonalLoop=1;jettySize=auto;html=1;exitX=0.5;exitY=1;exitDx=0;exitDy=0;entryX=0.5;entryY=0;entryDx=0;entryDy=0;" edge="1" parent="1" source="A-ObRub3Z6mCzpWQvKQM-1" target="A-ObRub3Z6mCzpWQvKQM-9">
          <mxGeometry relative="1" as="geometry" />
        </mxCell>
        <mxCell id="A-ObRub3Z6mCzpWQvKQM-1" value="Print k" style="rounded=0;whiteSpace=wrap;html=1;" vertex="1" parent="1">
          <mxGeometry x="190" y="620" width="120" height="60" as="geometry" />
        </mxCell>
        <mxCell id="A-ObRub3Z6mCzpWQvKQM-9" value="End" style="ellipse;whiteSpace=wrap;html=1;" vertex="1" parent="1">
          <mxGeometry x="190" y="690" width="120" height="80" as="geometry" />
        </mxCell>
      </root>
    </mxGraphModel>
  </diagram>
  <diagram id="M47Z3CUxTMQyrsnZwPIA" name="Question 35">
    <mxGraphModel dx="377" dy="802" grid="1" gridSize="10" guides="1" tooltips="1" connect="1" arrows="1" fold="1" page="1" pageScale="1" pageWidth="850" pageHeight="1100" math="0" shadow="0">
      <root>
        <mxCell id="0" />
        <mxCell id="1" parent="0" />
        <mxCell id="oacXVkw3awA5K35KYpV0-1" value="Start" style="ellipse;whiteSpace=wrap;html=1;" vertex="1" parent="1">
          <mxGeometry x="180" y="20" width="120" height="80" as="geometry" />
        </mxCell>
      </root>
    </mxGraphModel>
  </diagram>
</mxfile>
